#!OML:ASF E:\emotionWalksFemale\Project 1\Capture day 1\Session 1\Female1.ASF
:FULLY-SPECIFIED
:DEGREES
387
root 8.69134 15.6347 18.6118 361.565 5.99921 -361.877
lowerback 6.74183 2.47407 1.7762
upperback -5.52144 3.42457 -1.26981
thorax -9.46489 1.49778 -2.85122
lowerneck -9.13414 -6.31766 -8.57156
upperneck 6.07804 -8.21156 9.44278
head 4.05415 -3.82044 3.73705
rclavicle 9.74045e-015 5.96354e-015
rhumerus -50.9665 43.07 -106.582
rradius 72.8028
rwrist 1.18326
rhand 13.6391 -53.0877
rfingers 7.12502
rthumb 38.5691 -438.73
lclavicle 9.74045e-015 5.96354e-015
lhumerus -55.0794 -3.21585 78.7649
lradius 28.6669
lwrist -29.3479
lhand 27.3482 -29.427
lfingers 7.12502
lthumb 51.3079 -8.91909
rfemur -1.64371 15.3435 28.5861
rtibia 14.3296
rfoot -18.8781 -30.2273
rtoes -14.7295
lfemur -13.5073 -16.4936 -21.8484
ltibia 31.5028
lfoot -24.6345 11.2402
ltoes -30.1199
388
root 8.70073 15.6209 18.6206 361.818 5.25787 -361.806
lowerback 6.30474 2.57889 1.9907
upperback -5.46608 3.56753 -1.43006
thorax -9.11415 1.55687 -3.13221
lowerneck -10.1189 -6.32372 -7.99349
upperneck 6.61149 -8.23543 9.16107
head 4.34433 -3.79953 3.52498
rclavicle 3.55825e-014 6.36111e-015
rhumerus -50.4048 41.8313 -105.998
rradius 71.7565
rwrist 0.89593
rhand 14.6649 -52.7513
rfingers 7.12502
rthumb 39.5361 -438.116
lclavicle 3.55825e-014 6.36111e-015
lhumerus -54.2782 -3.42287 78.8548
lradius 28.4767
lwrist -29.0605
lhand 24.1328 -30.6032
lfingers 7.12502
lthumb 48.3638 -8.56189
rfemur -1.29694 15.9029 28.5193
rtibia 13.4442
rfoot -18.6014 -30.3102
rtoes -15.5799
lfemur -13.5154 -17.3814 -21.8405
ltibia 31.1864
lfoot -25.4824 11.6637
ltoes -25.693
389
root 8.70237 15.6153 18.6273 362.117 4.48852 -361.783
lowerback 5.81057 2.61923 2.01992
upperback -5.71705 3.61253 -1.50467
thorax -9.08762 1.57365 -3.21425
lowerneck -9.84175 -6.119 -7.68426
upperneck 6.78341 -8.03056 9.14028
head 4.31999 -3.6978 3.49266
rclavicle -3.29486e-014 -1.59028e-015
rhumerus -50.862 40.5772 -106.265
rradius 70.6049
rwrist 1.21697
rhand 14.9194 -52.4636
rfingers 7.12502
rthumb 39.7758 -437.757
lclavicle -3.29486e-014 -1.59028e-015
lhumerus -54.2634 -3.47344 78.7489
lradius 28.4248
lwrist -28.9509
lhand 20.6054 -31.7093
lfingers 7.12502
lthumb 45.0986 -8.24871
rfemur -1.18433 16.7107 28.4953
rtibia 12.869
rfoot -18.7826 -30.6157
rtoes -15.5218
lfemur -13.6923 -18.6663 -21.641
ltibia 30.8234
lfoot -26.3901 12.2575
ltoes -18.5888
390
root 8.70047 15.5984 18.6321 362.21 3.78553 -361.765
lowerback 5.54424 2.60002 1.92184
upperback -5.8511 3.57549 -1.47538
thorax -9.08683 1.56241 -3.11322
lowerneck -9.7811 -5.88146 -7.52965
upperneck 6.97274 -7.7603 9.25937
head 4.3438 -3.55431 3.52779
rclavicle -5.47652e-014 -1.98785e-014
rhumerus -51.3051 39.6355 -106.469
rradius 69.3981
rwrist 1.85536
rhand 14.107 -52.6209
rfingers 7.12502
rthumb 39.0104 -438.138
lclavicle -5.47652e-014 -1.98785e-014
lhumerus -54.1724 -3.17901 78.4824
lradius 28.3671
lwrist -29.2417
lhand 18.5437 -32.5416
lfingers 7.12502
lthumb 43.1761 -8.35813
rfemur -1.03186 17.6404 28.5364
rtibia 12.5871
rfoot -18.85 -31.3829
rtoes -16.4747
lfemur -13.6261 -19.4711 -21.5681
ltibia 30.3577
lfoot -26.3128 14.0876
ltoes -20.5814
391
root 8.69974 15.5514 18.6327 362.013 3.15063 -361.795
lowerback 5.60499 2.59765 1.95475
upperback -5.82469 3.57934 -1.43034
thorax -9.09451 1.56345 -3.0868
lowerneck -10.0135 -5.73431 -7.51636
upperneck 7.30822 -7.59524 9.47076
head 4.479 -3.45123 3.59768
rclavicle 3.47873e-015 5.56597e-015
rhumerus -51.3373 38.4993 -106.161
rradius 68.2256
rwrist 2.34772
rhand 13.7964 -52.8929
rfingers 7.12502
rthumb 38.7175 -438.493
lclavicle 3.47873e-015 5.56597e-015
lhumerus -53.7685 -2.93571 78.2256
lradius 28.2241
lwrist -29.8044
lhand 17.2553 -33.4154
lfingers 7.12502
lthumb 41.9701 -8.81539
rfemur -0.722601 18.6146 28.6971
rtibia 12.4607
rfoot -18.6988 -32.4023
rtoes -17.3806
lfemur -13.0228 -19.5089 -21.6469
ltibia 29.782
lfoot -25.1818 16.3271
ltoes -28.2144
392
root 8.69839 15.5099 18.6298 361.869 2.50681 -361.765
lowerback 5.83471 2.74521 2.11147
upperback -5.61995 3.79186 -1.47252
thorax -8.98011 1.65933 -3.25093
lowerneck -11.0591 -5.84656 -7.70162
upperneck 7.73117 -7.70664 9.66325
head 4.80734 -3.46539 3.65146
rclavicle 4.91495e-014 -3.02153e-014
rhumerus -50.4236 36.9501 -104.926
rradius 67.0096
rwrist 2.60073
rhand 13.8188 -53.1173
rfingers 7.12502
rthumb 38.7387 -438.712
lclavicle 4.91495e-014 -3.02153e-014
lhumerus -52.7576 -3.13008 78.3332
lradius 28.0973
lwrist -30.2847
lhand 15.2353 -34.582
lfingers 7.12502
lthumb 40.0731 -9.37803
rfemur -0.667942 19.3898 28.7441
rtibia 12.6264
rfoot -18.6487 -33.2934
rtoes -16.7217
lfemur -12.4173 -19.2786 -21.7782
ltibia 29.1013
lfoot -23.4273 18.6943
ltoes -35.3601
393
root 8.69696 15.4855 18.6206 361.782 1.99233 -361.601
lowerback 5.92799 2.53962 1.87173
upperback -5.64382 3.49756 -1.40377
thorax -9.0988 1.53023 -3.01341
lowerneck -10.9155 -5.46092 -7.51539
upperneck 7.64559 -7.21624 9.67371
head 4.70744 -3.2245 3.6725
rclavicle 2.40529e-014 -5.96354e-015
rhumerus -50.3015 36.1176 -104.65
rradius 65.7786
rwrist 2.78206
rhand 13.4397 -53.6195
rfingers 7.12502
rthumb 38.3809 -439.314
lclavicle 2.40529e-014 -5.96354e-015
lhumerus -52.6276 -2.92031 78.2933
lradius 28.1386
lwrist -30.2716
lhand 12.8558 -35.4326
lfingers 7.12502
lthumb 37.8297 -9.58724
rfemur -0.773086 19.9159 28.6266
rtibia 12.9433
rfoot -18.6076 -34.0794
rtoes -15.3577
lfemur -11.9113 -19.115 -22.009
ltibia 28.3335
lfoot -22.4765 19.83
ltoes -37.7445
394
root 8.69756 15.4732 18.6039 361.508 1.67146 -361.464
lowerback 6.24887 2.13747 1.56899
upperback -5.67484 2.94914 -1.15994
thorax -9.38367 1.28492 -2.53104
lowerneck -9.81052 -4.9414 -7.00654
upperneck 6.79188 -6.53131 9.11735
head 4.16647 -2.94528 3.49982
rclavicle 6.41081e-015 3.97569e-016
rhumerus -50.3886 35.7728 -104.479
rradius 64.5282
rwrist 2.91335
rhand 13.1281 -54.2464
rfingers 7.12502
rthumb 38.0868 -440.022
lclavicle 6.41081e-015 3.97569e-016
lhumerus -52.6063 -2.13204 78.1508
lradius 27.9936
lwrist -30.3659
lhand 11.0624 -35.6577
lfingers 7.12502
lthumb 36.1333 -9.374
rfemur -0.54328 20.1047 28.5867
rtibia 12.8936
rfoot -18.0501 -34.334
rtoes -14.6197
lfemur -11.1992 -18.8296 -22.3244
ltibia 27.6062
lfoot -22.172 19.5226
ltoes -36.7928
395
root 8.69779 15.4759 18.591 361.085 1.24862 -361.359
lowerback 6.78249 1.89924 1.3931
upperback -5.57605 2.63326 -0.943949
thorax -9.62587 1.14651 -2.18022
lowerneck -9.02798 -4.62597 -7.12361
upperneck 6.00851 -6.08194 9.12646
head 3.76675 -2.75598 3.57388
rclavicle 2.13694e-015 -2.22639e-014
rhumerus -49.9973 34.9887 -103.782
rradius 63.1016
rwrist 3.18195
rhand 12.8743 -54.7365
rfingers 7.12502
rthumb 37.8471 -440.577
lclavicle 2.13694e-015 -2.22639e-014
lhumerus -52.1217 -1.23033 77.9195
lradius 27.6908
lwrist -30.9551
lhand 9.59322 -36.0699
lfingers 7.12502
lthumb 34.7404 -9.45357
rfemur 0.0529058 19.9333 28.5935
rtibia 12.4248
rfoot -17.0498 -33.5979
rtoes -13.6307
lfemur -10.3333 -18.647 -22.7109
ltibia 27.0032
lfoot -21.9496 18.9898
ltoes -34.2234
396
root 8.69497 15.4856 18.5782 360.583 0.518879 -361.464
lowerback 7.87366 1.95469 1.53833
upperback -5.09628 2.75119 -0.762359
thorax -9.74284 1.19972 -2.12021
lowerneck -10.6591 -4.73184 -7.61328
upperneck 6.11863 -6.09695 9.45518
head 4.09638 -2.71488 3.72509
rclavicle 1.66482e-014 1.51076e-014
rhumerus -48.0908 33.7116 -101.989
rradius 61.3279
rwrist 3.61401
rhand 12.3119 -55.3016
rfingers 7.12502
rthumb 37.3157 -441.284
lclavicle 1.66482e-014 1.51076e-014
lhumerus -50.2377 -0.524503 77.8831
lradius 26.9686
lwrist -31.9322
lhand 7.7711 -36.9571
lfingers 7.12502
lthumb 33.0094 -9.95889
rfemur 0.771613 19.9879 28.8499
rtibia 11.7894
rfoot -15.7196 -32.5992
rtoes -11.662
lfemur -9.46737 -18.8528 -22.8537
ltibia 26.5789
lfoot -22.1887 19.2365
ltoes -30.1354
397
root 8.69486 15.4972 18.5453 360.122 -1.13935 -361.741
lowerback 8.75595 2.10464 1.55435
upperback -5.34453 2.99298 -0.533211
thorax -10.5463 1.30605 -1.97409
lowerneck -9.23809 -4.25416 -7.38133
upperneck 5.56313 -5.53217 9.43689
head 3.63836 -2.47585 3.74941
rclavicle 4.65156e-014 7.15625e-015
rhumerus -48.0967 32.3562 -101.871
rradius 59.2267
rwrist 4.10291
rhand 10.2959 -55.8191
rfingers 7.12502
rthumb 35.4069 -442.279
lclavicle 4.65156e-014 7.15625e-015
lhumerus -50.1666 0.108677 77.4201
lradius 26.4133
lwrist -32.9217
lhand 5.63363 -38.0094
lfingers 7.12502
lthumb 30.9742 -10.603
rfemur 1.18796 20.017 29.109
rtibia 11.2341
rfoot -13.9506 -30.991
rtoes -10.8159
lfemur -8.6718 -18.7783 -22.8418
ltibia 26.3092
lfoot -22.4001 20.8205
ltoes -27.0992
398
root 8.70199 15.4921 18.5133 359.116 -1.5358 -361.914
lowerback 10.1716 1.90943 1.82678
upperback -5.04835 2.80102 -0.427304
thorax -11.0654 1.18694 -2.0353
lowerneck -9.3629 -4.06331 -7.11838
upperneck 5.39916 -5.27374 9.25044
head 3.57497 -2.34951 3.66547
rclavicle -2.09718e-014 -6.75868e-015
rhumerus -46.9082 30.5617 -100.887
rradius 56.697
rwrist 4.93978
rhand 7.69694 -55.9254
rfingers 7.12502
rthumb 32.9388 -442.938
lclavicle -2.09718e-014 -6.75868e-015
lhumerus -49.0824 0.634241 77.1567
lradius 25.7929
lwrist -33.9156
lhand 3.61119 -38.6869
lfingers 7.12502
lthumb 29.0444 -10.9308
rfemur 2.20394 19.5887 29.577
rtibia 11.0765
rfoot -13.0426 -30.3667
rtoes -10.0671
lfemur -7.44285 -19.1086 -23.1225
ltibia 26.1811
lfoot -22.4907 21.5179
ltoes -24.9526
399
root 8.69733 15.4889 18.4914 358.576 -2.08298 -361.963
lowerback 10.8837 1.78047 1.61382
upperback -4.79848 2.62131 -0.266462
thorax -11.2371 1.12046 -1.73062
lowerneck -9.60016 -3.85407 -6.86014
upperneck 5.1883 -4.98182 9.06341
head 3.51448 -2.20456 3.58285
rclavicle 4.95471e-014 2.38542e-015
rhumerus -45.4664 28.585 -99.5976
rradius 53.7743
rwrist 6.40137
rhand 6.08217 -55.9571
rfingers 7.12502
rthumb 31.4016 -443.281
lclavicle 4.95471e-014 2.38542e-015
lhumerus -47.8955 1.59328 76.6844
lradius 25.1865
lwrist -35.3147
lhand 2.06667 -38.891
lfingers 7.12502
lthumb 27.5683 -10.89
rfemur 2.44476 19.3095 29.7911
rtibia 11.4983
rfoot -12.2198 -29.7804
rtoes -10.754
lfemur -6.77626 -19.1493 -23.3314
ltibia 26.1348
lfoot -22.7174 21.6612
ltoes -23.7122
